<?xml version="1.0"?>
<svg xmlns="http://www.w3.org/2000/svg" xmlns:xlink="http://www.w3.org/1999/xlink" xmlns:svgjs="http://svgjs.com/svgjs" version="1.1" width="512" height="512" x="0" y="0" viewBox="0 0 512 512" style="enable-background:new 0 0 512 512" xml:space="preserve"><g><g xmlns="http://www.w3.org/2000/svg"><g><path d="m255.483.001c-7.629.024-15.157.386-22.571 1.048 33 10.094 62.795 30.885 85.365 60.322l29.673 38.701c35.706 23.272 59.225 62.671 59.225 107.268l.001 71.37c35.064-29.759 56.503-69.832 56.366-113.858-.286-91.402-93.437-165.209-208.059-164.851z" fill="#ffffff" data-original="#000000" style=""/><path d="m104.824 207.342c0-71.342 60.188-129.383 134.169-129.383h34.013c7.304 0 14.471.574 21.462 1.663-57.582-75.104-162.025-73.966-218.1 3.141-17.832 24.521-28.005 53.013-27.91 83.386.137 43.729 21.534 83.424 56.366 112.901z" fill="#ffffff" data-original="#000000" style=""/></g><path d="m406.091 427.594h-95.04v-48.14c39.25-18.639 66.124-56.586 66.124-100.368v-71.745c0-54.889-46.638-99.386-104.169-99.386h-34.013c-57.531 0-104.169 44.497-104.169 99.386v71.745c0 43.782 26.874 81.729 66.124 100.368v48.14h-95.04c-40.347 0-73.055 28.226-73.055 63.046v21.242l446.293.118v-21.36c0-34.819-32.708-63.046-73.055-63.046zm-194.696-154.69c7.309-3.901 16.395-1.141 20.297 6.166 4.805 8.999 14.12 14.588 24.307 14.588s19.502-5.59 24.308-14.588c3.901-7.308 12.991-10.066 20.297-6.166 7.308 3.902 10.068 12.988 6.166 20.295-10.032 18.786-29.486 30.456-50.771 30.456s-40.738-11.67-50.771-30.456c-3.901-7.307-1.14-16.393 6.167-20.295z" fill="#ffffff" data-original="#000000" style=""/></g></g></svg>
